<svg id="Layer_1" data-name="Layer 1" xmlns="http://www.w3.org/2000/svg" viewBox="0 0 576 576"><defs><style>.cls-1{fill:#231f20;}</style></defs><path class="cls-1" d="M25.21,460.91v-9.14h45.7v9.14Zm0,22.85V463.19h32v9.14H34.35v2.29H70.91v9.14Z"/><path class="cls-1" d="M107.47,483.76l-32-32H89.19l32,32Zm-32,0,13.71-13.71,6.86,6.85-6.86,6.86Zm32-18.28-6.85-6.86,6.85-6.85h13.71Z"/><path class="cls-1" d="M125.75,483.76V463.19h36.56v-2.28H125.75v-9.14h45.71v20.56H134.89v11.43Z"/><path class="cls-1" d="M176,483.76v-32h9.14v32Zm11.42,0v-9.14h34.28v9.14Z"/><path class="cls-1" d="M262.86,472.33V460.91H226.3v-9.14H272v20.56ZM226.3,483.76V463.19h9.14v11.43H272v9.14Z"/><path class="cls-1" d="M276.57,483.76v-32h9.14v32Z"/><path class="cls-1" d="M290.28,460.91v-9.14H336v9.14Zm18.28,22.85V463.19h9.14v20.57Z"/><path class="cls-1" d="M372.54,483.76l-32-32h13.71l32,32Zm-32,0V456.34l9.14,9.14v18.28Z"/><path class="cls-1" d="M390.83,460.91v-9.14h45.7v9.14Zm18.28,22.85V463.19h9.14v20.57Z"/><path class="cls-1" d="M441.1,483.76v-32h9.14v32Z"/><path class="cls-1" d="M491.37,472.33V460.91H454.81v-9.14h45.7v20.56Zm-36.56,11.43V463.19H464v11.43h36.56v9.14Z"/><path class="cls-1" d="M537.07,483.76l-32-32h13.71l32,32Zm-32,0V456.34l9.14,9.14v18.28Zm45.7-4.57-9.14-9.14V451.77h9.14Z"/><path class="cls-1" d="M73.55,548.83V532.2H25.22V502.26H37.3v16.63H85.63v29.94Zm-48.33,0V535.52H37.3v13.31Zm48.33-33.27v-13.3H85.63v13.3Z"/><path class="cls-1" d="M134,548.83,91.67,502.26h18.12l42.29,46.57Zm-42.29,0V508.91l12.08,13.31v26.61Z"/><path class="cls-1" d="M200.41,548.83l-42.29-46.57h18.12l42.29,46.57Zm-42.29,0V508.91l12.08,13.31v26.61Zm60.41-6.65-12.08-13.31V502.26h12.08Z"/><path class="cls-1" d="M224.57,548.83l30.21-33.27H236.66v13.31l-12.09,13.31V502.26H285L242.7,548.83Z"/><path class="cls-1" d="M291,548.83V502.26h36.24l-12.08,13.3H303.11v20h12.08l12.08,13.31Zm42.28,0-21.14-23.29,21.14-23.28h18.13l-18.13,20h0l-3,3.32,21.15,23.29Z"/><path class="cls-1" d="M405.81,532.2V515.56H357.48v-13.3h60.41V532.2Zm-48.33,16.63V518.89h12.08v16.63h48.33v13.31Z"/><path class="cls-1" d="M472.26,532.2V515.56H423.93v-13.3h60.41V532.2Zm-48.33,16.63V518.89H436v16.63h48.33v13.31Z"/><path class="cls-1" d="M490.38,548.83l42.29-46.57h18.12L508.5,548.83Zm0-6.65V502.26h12.08v26.61Zm42.29,6.65-9.06-10,9.06-10,18.12,20Z"/><path class="cls-1" d="M144.53,293.56,86.6,238.8l200-211.63,57.93,54.76Zm144.84,136.9L159,307.25,299,159.11,357,213.87,257,319.68l14.48,13.69,160-169.3,57.94,54.76Z"/></svg>